<?xml version="1.0" encoding="utf-8"?>
<!-- Generator: Adobe Illustrator 17.0.0, SVG Export Plug-In . SVG Version: 6.00 Build 0)  -->
<!DOCTYPE svg PUBLIC "-//W3C//DTD SVG 1.1//EN" "http://www.w3.org/Graphics/SVG/1.1/DTD/svg11.dtd">
<svg version="1.1" xmlns="http://www.w3.org/2000/svg" xmlns:xlink="http://www.w3.org/1999/xlink" x="0px" y="0px" width="512px"
	 height="512px" viewBox="0 0 512 512" enable-background="new 0 0 512 512" xml:space="preserve">
<g id="Layer_2" display="none">
	<rect display="inline" fill="#EBE7DC" stroke="#FEFEFE" stroke-miterlimit="10" width="512" height="512"/>
</g>
<g id="Layer_1">
	<g>
		<path display="none" fill="#FFFFFF" d="M16.659,338.972c0-109.681,0.019-219.361-0.091-329.042
			C16.564,6.646,17.211,5.993,20.496,6C83.171,6.126,145.846,6.093,208.52,6.093c-0.23,0.207-0.292,0.455-0.187,0.746
			c-0.349,0.331-0.698,0.663-1.047,0.994c-0.209,0.234-0.466,0.44-0.62,0.705c-31.16,53.896-62.315,107.795-93.438,161.713
			c-0.454,0.786-1.839,1.548-0.571,2.756c17.473,30.266,34.919,60.547,52.428,90.792c14.385,24.849,28.846,49.654,43.273,74.478
			c-0.186,0.151-0.269,0.345-0.249,0.584l-0.262,0.223c-1.436-0.038-2.872-0.108-4.307-0.108
			C141.247,338.971,78.953,338.972,16.659,338.972z"/>
		<path display="none" fill="#FFFFFF" d="M495.353,173.012c0,109.581-0.016,219.161,0.079,328.742
			c0.003,3.282-0.453,4.255-4.088,4.246c-62.617-0.151-125.235-0.108-187.852-0.108c0.23-0.2,0.295-0.443,0.196-0.731
			c0.35-0.294,0.7-0.587,1.05-0.881c17.577-30.343,35.182-60.67,52.722-91.035c14.269-24.701,28.46-49.447,42.685-74.173
			c0.478-1.632-0.732-2.698-1.411-3.877c-20.58-35.685-41.213-71.34-61.794-107.025c-10.564-18.318-21.043-36.685-31.561-55.029
			c1.912-0.043,3.824-0.124,5.736-0.124C372.527,173.011,433.94,173.012,495.353,173.012z"/>
		<path fill="#894552" d="M16.659,338.972c62.294,0,124.588-0.001,186.882,0.005c1.436,0,2.872,0.07,4.305,0.108
			c-0.299,0.904-0.447,1.893-0.912,2.698c-10.603,18.373-21.25,36.721-31.871,55.084c-16.05,27.751-32.024,55.546-48.165,83.245
			c-4.718,8.097-8.763,16.616-14.573,24.055c-0.77-1.196-1.591-2.363-2.302-3.594c-29.83-51.589-59.646-103.187-89.487-154.77
			c-1.173-2.027-2.004-4.299-3.877-5.872C16.659,339.612,16.659,339.292,16.659,338.972z"/>
		<path fill="#894552" d="M495.353,173.012c-61.413,0-122.826-0.001-184.239,0.006c-1.912,0-3.824,0.081-5.736,0.124
			c-0.033-0.176-0.039-0.353-0.017-0.531c-0.237-2.09,1.041-3.652,1.973-5.277c5.705-9.947,11.488-19.85,17.232-29.774
			c25.05-43.281,50.096-86.564,75.143-129.847c30.583,52.825,61.162,105.652,91.764,158.466c1.175,2.027,2.005,4.301,3.878,5.874
			C495.353,172.373,495.353,172.692,495.353,173.012z"/>
		<path display="none" fill="#FEFEFE" d="M495.353,172.053c-1.873-1.573-2.704-3.847-3.878-5.874
			C460.873,113.365,430.294,60.537,399.71,7.712c-0.35-0.296-0.7-0.592-1.05-0.888c0.098-0.288,0.032-0.531-0.197-0.731
			c31.177,0,62.355,0.049,93.532-0.081c2.863-0.012,3.443,0.578,3.437,3.439C495.325,63.651,495.353,117.852,495.353,172.053z"/>
		<path display="none" fill="#FEFEFE" d="M16.659,339.931c1.873,1.573,2.704,3.845,3.877,5.872
			c29.841,51.583,59.657,103.181,89.487,154.77c0.711,1.23,1.533,2.397,2.302,3.592c0.347,0.324,0.694,0.648,1.041,0.973
			c-0.097,0.289-0.035,0.54,0.184,0.752c-31.177,0-62.355-0.049-93.532,0.081c-2.863,0.012-3.443-0.578-3.437-3.439
			C16.687,448.333,16.659,394.132,16.659,339.931z"/>
		<path display="none" fill="#7E7D8C" d="M398.463,6.093c0.23,0.199,0.295,0.443,0.197,0.731c-1.433,0.076-2.866,0.218-4.299,0.218
			C333.786,7.053,273.21,7.053,212.635,7.042c-1.434,0-2.868-0.133-4.301-0.204c-0.105-0.291-0.043-0.539,0.187-0.746
			C271.835,6.093,335.149,6.093,398.463,6.093z"/>
		<path display="none" fill="#7E7D8C" d="M113.549,505.891c-0.219-0.212-0.28-0.463-0.184-0.752
			c1.434-0.069,2.868-0.198,4.302-0.198c60.574-0.01,121.148-0.01,181.721,0.001c1.433,0,2.866,0.143,4.299,0.219
			c0.099,0.288,0.033,0.531-0.196,0.731C240.177,505.891,176.863,505.891,113.549,505.891z"/>
		<path fill="#F1606C" d="M305.379,173.142c10.518,18.345,20.997,36.712,31.561,55.029c20.58,35.685,41.214,71.339,61.794,107.025
			c0.68,1.179,1.889,2.244,1.411,3.877c-61.344-0.034-122.687-0.069-184.031-0.093c-2.234-0.001-4.467,0.104-6.701,0.16
			c-0.434-0.092-0.869-0.185-1.303-0.277c-0.02-0.238,0.064-0.433,0.25-0.583c7.464-12.977,14.911-25.963,22.393-38.93
			c13.692-23.729,27.421-47.437,41.101-71.173c10.577-18.352,21.103-36.733,31.652-55.101c0.619-0.154,1.237-0.308,1.856-0.462
			C305.34,172.789,305.345,172.966,305.379,173.142z"/>
		<path fill="#2A364A" d="M305.362,172.611c-0.619,0.154-1.237,0.308-1.856,0.462c-0.212-0.175-0.455-0.282-0.729-0.318
			c-0.226-0.76-0.314-1.6-0.7-2.268c-10.59-18.363-21.214-36.706-31.825-55.057c-16.195-28.008-32.281-56.079-48.641-83.99
			c-4.651-7.935-8.509-16.374-14.325-23.607c0.349-0.331,0.698-0.663,1.047-0.994c1.434,0.071,2.868,0.203,4.301,0.204
			c60.575,0.01,121.151,0.01,181.726-0.001c1.433,0,2.866-0.142,4.299-0.218c0.35,0.296,0.7,0.592,1.05,0.888
			c-25.047,43.283-50.093,86.566-75.143,129.847c-5.744,9.925-11.527,19.827-17.232,29.774
			C306.403,168.959,305.125,170.521,305.362,172.611z"/>
		<path fill="#2A364A" d="M208.11,338.861c0.434,0.092,0.869,0.185,1.303,0.277c6.724,11.755,13.404,23.535,20.181,35.259
			c25.031,43.304,50.093,86.59,75.144,129.882c-0.35,0.294-0.7,0.587-1.05,0.881c-1.433-0.076-2.866-0.218-4.299-0.219
			c-60.574-0.011-121.148-0.011-181.721-0.001c-1.434,0-2.868,0.129-4.302,0.198c-0.347-0.325-0.694-0.65-1.041-0.973
			c5.811-7.438,9.855-15.957,14.574-24.054c16.141-27.698,32.115-55.493,48.165-83.245c10.62-18.363,21.267-36.711,31.871-55.084
			c0.465-0.806,0.614-1.794,0.912-2.698C207.848,339.084,208.11,338.861,208.11,338.861z"/>
		<path fill="#894552" d="M207.286,7.833c5.816,7.234,9.674,15.672,14.325,23.607c16.36,27.911,32.446,55.982,48.641,83.99
			c10.611,18.351,21.235,36.694,31.825,55.057c0.385,0.668,0.473,1.508,0.698,2.269c-1.751,0.086-3.501,0.245-5.251,0.246
			c-61.622,0.011-123.245,0.007-184.867,0.006c-1.268-1.208,0.117-1.97,0.571-2.756c31.122-53.918,62.278-107.817,93.438-161.713
			C206.82,8.272,207.077,8.066,207.286,7.833z"/>
		<path fill="#AE4F58" d="M112.658,173.008c61.622,0.002,123.245,0.005,184.867-0.006c1.75,0,3.5-0.159,5.251-0.246
			c0.274,0.035,0.517,0.141,0.73,0.317c-10.549,18.368-21.075,36.749-31.652,55.101c-13.68,23.736-27.409,47.444-41.101,71.173
			c-7.482,12.967-14.929,25.953-22.393,38.93c-14.428-24.825-28.889-49.63-43.274-74.478
			C147.577,233.555,130.131,203.273,112.658,173.008z"/>
		<path fill="#894552" d="M304.738,504.28c-25.051-43.293-50.113-86.578-75.144-129.882c-6.777-11.724-13.457-23.505-20.181-35.259
			c2.234-0.055,4.467-0.16,6.701-0.159c61.344,0.025,122.687,0.06,184.031,0.093c-14.226,24.726-28.417,49.472-42.685,74.173
			C339.919,443.61,322.315,473.937,304.738,504.28z"/>
	</g>
</g>
</svg>
