<?xml version="1.0" encoding="utf-8"?>
<!-- Generator: Adobe Illustrator 17.0.0, SVG Export Plug-In . SVG Version: 6.00 Build 0)  -->
<!DOCTYPE svg PUBLIC "-//W3C//DTD SVG 1.1//EN" "http://www.w3.org/Graphics/SVG/1.1/DTD/svg11.dtd">
<svg version="1.1" xmlns="http://www.w3.org/2000/svg" xmlns:xlink="http://www.w3.org/1999/xlink" x="0px" y="0px" width="512px"
	 height="512px" viewBox="0 0 512 512" enable-background="new 0 0 512 512" xml:space="preserve">
<g id="Layer_2" display="none">
	<rect x="-44" y="-44" display="inline" fill-rule="evenodd" clip-rule="evenodd" fill="#EC1953" width="600" height="600"/>
</g>
<g id="Layer_1">
	<g>
		<g>
			<path fill-rule="evenodd" clip-rule="evenodd" d="M390.9,268.26c-0.733-18.927,14.267-53.927,35.117-63.036
				c16.628,10.57,38.605,26.842,54.626,37.822c0.325,9.805-1.31,19.621-7.804,29.417c-3.932,7.17-9.666,13.437-18.506,17.871
				c-11.497,6.228-24.416,5.367-36.12,4.667v32.094c69.985,2.369,95.968-29.398,93.645-105.06
				c-27.639-17.353-50.801-38.5-81.939-54.631c-0.455-6.711,0.213-18.978,0-25.214c-13.596-4.01-27.313-8.405-27.313-8.405
				s-23.412,67.242-35.117,100.858c-69.434,8.539-131.928,53.874-156.075,109.263c-7.885,18.086-11.558,29.536-19.509,50.429
				c0-15.407-0.488-29.769,0-46.227c1.763-23.773,10.429-46.773,23.411-67.239c22.988-39.869,56.835-59.376,62.43-117.668
				c2.971-30.952-6.221-66.743-12.681-80.546C229.294,6.227,134.748-29.099,51.437,28.723
				C7.351,59.32-34.313,174.016,43.633,230.438c57.302,41.479,144.729-15.495,128.762-84.048h-35.117
				c-0.325,9.805-0.65,12.608-1.951,22.413c-4.971,16.003-8.578,22.933-27.313,33.619c-19.17,7.057-32.78,7.102-48.773-5.603
				c-19.068-21.973-23.396-49.489-21.46-71.091c3.112-26.019,17.504-54.831,40.97-71.791
				c73.388-53.042,159.662,10.268,163.879,79.846c3.886,64.131-39.528,97.369-58.528,130.275
				C138.145,343.643,157.273,444.563,195.806,512h27.313C215.254,359.785,269.218,292.584,390.9,268.26z M412,415.345
				c29.333,0,57.167-11.845,64.741-33.619c-8.152-8.694-12.402-13.751-20.888-21.823c-15.997,13.62-23.921,17.833-53.248,17.62
				c-15.936-14.175-34.876-32.187-62.532-55.667c-8.508,8.869-19.062,19.926-23.074,24.644
				c25.758,25.237,71.005,49.931,58.292,119.273c-3.25,17.725-4.792,26.977-19.509,46.227h152.173v-37.822H412
				C412.112,467.506,411.981,434.671,412,415.345z"/>
		</g>
	</g>
</g>
</svg>
